<svg xmlns="http://www.w3.org/2000/svg" viewBox="0 0 800 1130" width="800" height="1130">
  <defs>
    <linearGradient id="bgGrad" x1="0%" y1="0%" x2="100%" y2="100%">
      <stop offset="0%" stop-color="#fdfbf7" />
      <stop offset="100%" stop-color="#f5f0e6" />
    </linearGradient>
    <linearGradient id="headerGrad" x1="0%" y1="0%" x2="100%" y2="0%">
      <stop offset="0%" stop-color="#0284c7" />
      <stop offset="100%" stop-color="#38bdf8" />
    </linearGradient>
    <linearGradient id="cardGrad" x1="0%" y1="0%" x2="100%" y2="100%">
      <stop offset="0%" stop-color="#ffffff" />
      <stop offset="100%" stop-color="#f0f9ff" />
    </linearGradient>
    <filter id="shadow" x="-5%" y="-5%" width="110%" height="115%">
      <feDropShadow dx="0" dy="4" stdDeviation="6" flood-opacity="0.08" />
    </filter>
  </defs>

  <!-- Page Background -->
  <rect width="800" height="1130" fill="url(#bgGrad)" />
  <rect x="25" y="25" width="750" height="1080" rx="16" fill="#ffffff" stroke="#e2e8f0" stroke-width="2" filter="url(#shadow)" />

  <!-- Top Header Banner -->
  <rect x="25" y="25" width="750" height="85" rx="16" fill="url(#headerGrad)" />
  <text x="50" y="65" font-family="Arial, sans-serif" font-weight="900" font-size="28" fill="#ffffff" letter-spacing="1">UNIT 2: IN THE BACKYARD</text>
  <text x="50" y="92" font-family="Arial, sans-serif" font-weight="bold" font-size="14" fill="#e0f2fe">Tiếng Anh 2 — Global Success (Tập 1) • NXB Giáo Dục Việt Nam</text>

  <!-- Page Indicator Badge -->
  <rect x="680" y="45" width="70" height="34" rx="17" fill="#ffffff" opacity="0.9" />
  <text x="715" y="68" font-family="Arial, sans-serif" font-weight="bold" font-size="14" fill="#0369a1" text-anchor="middle">P. 9</text>

  
  <!-- SECTION 1: LISTEN AND REPEAT / VOCABULARY -->
  <g transform="translate(50, 135)">
    <rect width="700" height="52" rx="14" fill="#e0f2fe" stroke="#bae6fd" stroke-width="1.5" />
    <circle cx="30" cy="26" r="16" fill="#0284c7" />
    <text x="30" y="32" font-family="Arial, sans-serif" font-weight="bold" font-size="16" fill="#ffffff" text-anchor="middle">1</text>
    <text x="58" y="33" font-family="Arial, sans-serif" font-weight="bold" font-size="18" fill="#0369a1">Listen, point and repeat 🎧</text>
  </g>

  <!-- Vocabulary Flash Cards Grid with Authentic Vectors -->
  <g transform="translate(50, 205)">
    
      <g transform="translate(0, 0)">
        <rect width="340" height="175" rx="16" fill="url(#cardGrad)" stroke="#cbd5e1" stroke-width="1.5" filter="url(#shadow)" />
        <rect x="15" y="15" width="120" height="145" rx="12" fill="#f8fafc" stroke="#e2e8f0" stroke-width="1.5" />
        <g transform="translate(0, 0)">
          <polygon points="75,45 105,75 75,105 45,75" fill="#a855f7" stroke="#7e22ce" stroke-width="2.5"/>
        <line x1="75" y1="45" x2="75" y2="105" stroke="#7e22ce" stroke-width="1.5"/>
        <line x1="45" y1="75" x2="105" y2="75" stroke="#7e22ce" stroke-width="1.5"/>
        <path d="M75 105 Q85 115 75 125" stroke="#ec4899" stroke-width="2" fill="none"/>
        </g>
        <text x="150" y="70" font-family="Arial, sans-serif" font-weight="900" font-size="24" fill="#0f172a">kite</text>
        <text x="150" y="105" font-family="Arial, sans-serif" font-weight="bold" font-size="14" fill="#0284c7">/kaɪt/</text>
        <rect x="150" y="120" width="170" height="30" rx="8" fill="#dcfce7" />
        <text x="235" y="140" font-family="Arial, sans-serif" font-weight="bold" font-size="12" fill="#15803d" text-anchor="middle">Target Vocabulary</text>
      </g>
      <g transform="translate(360, 0)">
        <rect width="340" height="175" rx="16" fill="url(#cardGrad)" stroke="#cbd5e1" stroke-width="1.5" filter="url(#shadow)" />
        <rect x="15" y="15" width="120" height="145" rx="12" fill="#f8fafc" stroke="#e2e8f0" stroke-width="1.5" />
        <g transform="translate(0, 0)">
          <circle cx="75" cy="88" r="30" fill="#fef08a" stroke="#ca8a04" stroke-width="2.5"/>
        <polygon points="50,65 58,45 68,62" fill="#fef08a" stroke="#ca8a04" stroke-width="2"/>
        <polygon points="100,65 92,45 82,62" fill="#fef08a" stroke="#ca8a04" stroke-width="2"/>
        <circle cx="65" cy="85" r="4" fill="#0f172a"/><circle cx="85" cy="85" r="4" fill="#0f172a"/>
        <path d="M70 95 Q75 100 80 95" fill="none" stroke="#ca8a04" stroke-width="2" stroke-linecap="round"/>
        </g>
        <text x="150" y="70" font-family="Arial, sans-serif" font-weight="900" font-size="24" fill="#0f172a">kitten</text>
        <text x="150" y="105" font-family="Arial, sans-serif" font-weight="bold" font-size="14" fill="#0284c7">/ˈkɪtn/</text>
        <rect x="150" y="120" width="170" height="30" rx="8" fill="#dcfce7" />
        <text x="235" y="140" font-family="Arial, sans-serif" font-weight="bold" font-size="12" fill="#15803d" text-anchor="middle">Target Vocabulary</text>
      </g>
      <g transform="translate(0, 195)">
        <rect width="340" height="175" rx="16" fill="url(#cardGrad)" stroke="#cbd5e1" stroke-width="1.5" filter="url(#shadow)" />
        <rect x="15" y="15" width="120" height="145" rx="12" fill="#f8fafc" stroke="#e2e8f0" stroke-width="1.5" />
        <g transform="translate(0, 0)">
          <circle cx="50" cy="98" r="18" fill="none" stroke="#3b82f6" stroke-width="3"/>
        <circle cx="100" cy="98" r="18" fill="none" stroke="#3b82f6" stroke-width="3"/>
        <path d="M50 98 L72 68 L92 68 M72 68 L100 98 M72 68 L64 98 L50 98 M85 64 L96 64" stroke="#1d4ed8" stroke-width="3" stroke-linecap="round" stroke-linejoin="round"/>
        </g>
        <text x="150" y="70" font-family="Arial, sans-serif" font-weight="900" font-size="24" fill="#0f172a">bike</text>
        <text x="150" y="105" font-family="Arial, sans-serif" font-weight="bold" font-size="14" fill="#0284c7">/baɪk/</text>
        <rect x="150" y="120" width="170" height="30" rx="8" fill="#dcfce7" />
        <text x="235" y="140" font-family="Arial, sans-serif" font-weight="bold" font-size="12" fill="#15803d" text-anchor="middle">Target Vocabulary</text>
      </g>
  </g>

  <!-- SECTION 2: POINT AND SAY / DIALOGUE -->
  <g transform="translate(50, 620)">
    <rect width="700" height="52" rx="14" fill="#fef3c7" stroke="#fde68a" stroke-width="1.5" />
    <circle cx="30" cy="26" r="16" fill="#d97706" />
    <text x="30" y="32" font-family="Arial, sans-serif" font-weight="bold" font-size="16" fill="#ffffff" text-anchor="middle">2</text>
    <text x="58" y="33" font-family="Arial, sans-serif" font-weight="bold" font-size="18" fill="#92400e">Point and say / Conversation 🗣️</text>
  </g>

  <!-- Key Sentence Frame -->
  <g transform="translate(50, 690)">
    <rect width="700" height="160" rx="20" fill="#fffbeb" stroke="#fcd34d" stroke-width="2" filter="url(#shadow)" />
    <text x="350" y="55" font-family="Arial, sans-serif" font-weight="900" font-size="22" fill="#78350f" text-anchor="middle">💬 Target Pattern:</text>
    <text x="350" y="105" font-family="Arial, sans-serif" font-weight="bold" font-size="20" fill="#b45309" text-anchor="middle">“Look at the kitten. / I have a blue kite.”</text>
  </g>

  <!-- Mascot Tip Box -->
  <g transform="translate(50, 875)">
    <rect width="700" height="175" rx="20" fill="#f0fdf4" stroke="#86efac" stroke-width="2" />
    <circle cx="50" cy="50" r="30" fill="#22c55e" />
    <text x="50" y="60" font-family="Arial, sans-serif" font-size="28" text-anchor="middle">🐬</text>
    <text x="95" y="45" font-family="Arial, sans-serif" font-weight="bold" font-size="18" fill="#166534">PiPi's English Corner</text>
    <text x="95" y="75" font-family="Arial, sans-serif" font-size="15" fill="#15803d">Practise saying the new words aloud and listen to native audio!</text>
    <text x="95" y="105" font-family="Arial, sans-serif" font-size="14" fill="#4b5563" font-style="italic">• Tap any word in WonderKids to hear instant pronunciation.</text>
    <text x="95" y="130" font-family="Arial, sans-serif" font-size="14" fill="#4b5563" font-style="italic">• Complete mini-games to collect shiny gold stars ⭐!</text>
  </g>
  

  <!-- Footer Pagination -->
  <text x="400" y="1090" font-family="Arial, sans-serif" font-size="14" fill="#94a3b8" text-anchor="middle">Sách Giáo Khoa Tiếng Anh — Bộ Giáo Dục và Đào Tạo • Trang 9</text>
</svg>