<svg xmlns="http://www.w3.org/2000/svg" viewBox="0 0 400 400" width="100%" height="100%">
  <defs>
    <linearGradient id="bgGrad4" x1="0" y1="0" x2="1" y2="1">
      <stop offset="0%" stop-color="#ECFDF5"/>
      <stop offset="100%" stop-color="#D1FAE5"/>
    </linearGradient>
    <filter id="shadow4" x="-10%" y="-10%" width="120%" height="120%">
      <feDropShadow dx="0" dy="6" stdDeviation="6" flood-color="#064E3B" flood-opacity="0.15"/>
    </filter>
  </defs>
  
  <rect width="400" height="400" rx="32" fill="url(#bgGrad4)"/>
  
  <!-- Grass Blades & River Stones -->
  <path d="M0,280 Q80,180 60,80 Q100,200 120,320" fill="#10B981" opacity="0.8"/>
  <path d="M340,320 Q320,150 380,60 Q360,200 400,320" fill="#059669" opacity="0.7"/>
  <!-- Big River Rock (Tảng đá cuội) -->
  <ellipse cx="260" cy="270" rx="75" ry="45" fill="#94A3B8" filter="url(#shadow4)"/>
  
  <!-- Fragile Little Moth (Chị Nhà Trò bé nhỏ đang ngồi khóc) -->
  <g transform="translate(230, 190)" filter="url(#shadow4)">
    <!-- Wings -->
    <ellipse cx="15" cy="30" rx="20" ry="30" fill="#FEF08A" opacity="0.8" transform="rotate(-20 15 30)"/>
    <ellipse cx="45" cy="30" rx="20" ry="30" fill="#FEF08A" opacity="0.8" transform="rotate(20 45 30)"/>
    <!-- Body & Brown Dress -->
    <ellipse cx="30" cy="40" rx="12" ry="22" fill="#78350F"/>
    <!-- Head with Teardrops -->
    <circle cx="30" cy="20" r="12" fill="#FED7AA"/>
    <!-- Tear -->
    <circle cx="38" cy="28" r="3" fill="#38BDF8"/>
  </g>

  <!-- Hero: Dế Mèn Hiệp Sĩ Cường Tráng -->
  <g transform="translate(60, 130)" filter="url(#shadow4)">
    <!-- Shiny Armor Body -->
    <ellipse cx="70" cy="110" rx="35" ry="50" fill="#15803D"/>
    <!-- Golden Wing Cover -->
    <path d="M45,70 Q70,90 95,70 L85,150 Q70,160 55,150 Z" fill="#B45309"/>
    <!-- Head -->
    <circle cx="70" cy="55" r="26" fill="#16A34A"/>
    <!-- Long Curved Antennae -->
    <path d="M60,35 Q30,-15 10,-30" fill="none" stroke="#15803D" stroke-width="4" stroke-linecap="round"/>
    <path d="M80,35 Q110,-15 130,-30" fill="none" stroke="#15803D" stroke-width="4" stroke-linecap="round"/>
    <!-- Eyes -->
    <circle cx="58" cy="50" r="8" fill="#0F172A"/>
    <circle cx="60" cy="48" r="2.5" fill="#FFFFFF"/>
    <circle cx="82" cy="50" r="8" fill="#0F172A"/>
    <circle cx="84" cy="48" r="2.5" fill="#FFFFFF"/>
    <!-- Strong Pincer Arms (Xòe hai càng che chở) -->
    <path d="M35,90 Q-5,80 10,130" fill="none" stroke="#B45309" stroke-width="8" stroke-linecap="round"/>
    <path d="M105,90 Q155,85 135,130" fill="none" stroke="#B45309" stroke-width="8" stroke-linecap="round"/>
  </g>

  <!-- Title Ribbon -->
  <g transform="translate(30, 340)" filter="url(#shadow4)">
    <rect width="340" height="42" rx="21" fill="#FFFFFF" opacity="0.95"/>
    <text x="170" y="27" font-family="Baloo 2, sans-serif" font-weight="900" font-size="16" fill="#065F46" text-anchor="middle">🦗 BÀI 1: DẾ MÈN BÊNH VỰC KẺ YẾU</text>
  </g>
</svg>